M48
; DRILL file {KiCad (5.1.10)-1} date 12/11/21 17:16:25
; FORMAT={-:-/ absolute / inch / decimal}
; #@! TF.CreationDate,2021-12-11T17:16:25+05:30
; #@! TF.GenerationSoftware,Kicad,Pcbnew,(5.1.10)-1
; #@! TF.FileFunction,Plated,1,2,PTH
FMAT,2
INCH
T1C0.0120
T2C0.0197
T3C0.0276
T4C0.0295
T5C0.0315
T6C0.0394
T7C0.1181
%
G90
G05
T1
X5.0591Y-4.1339
X5.1378Y-4.3504
X5.1378Y-3.9173
X5.3544Y-3.8386
X5.3544Y-4.4291
X5.5709Y-3.9174
X5.5709Y-4.3504
X5.6496Y-4.1339
X5.6693Y-4.6063
X6.2205Y-4.2913
X6.5748Y-4.1929
T2
X5.0295Y-3.5433
X5.0295Y-4.7244
X5.0555Y-3.4807
X5.0555Y-3.6059
X5.0555Y-4.6618
X5.0555Y-4.787
X5.1181Y-3.4547
X5.1181Y-3.6319
X5.1181Y-4.6358
X5.1181Y-4.813
X5.1807Y-3.4807
X5.1807Y-3.6059
X5.1807Y-4.6618
X5.1807Y-4.787
X5.2067Y-3.5433
X5.2067Y-4.7244
X6.6043Y-3.5433
X6.6043Y-4.7244
X6.6303Y-3.4807
X6.6303Y-3.6059
X6.6303Y-4.6618
X6.6303Y-4.787
X6.6929Y-3.4547
X6.6929Y-3.6319
X6.6929Y-4.6358
X6.6929Y-4.813
X6.7556Y-3.4807
X6.7556Y-3.6059
X6.7556Y-4.6618
X6.7556Y-4.787
X6.7815Y-3.5433
X6.7815Y-4.7244
T3
X5.2394Y-4.1339
X5.2731Y-4.0526
X5.2731Y-4.2151
X5.3544Y-4.0189
X5.3544Y-4.2488
X5.4357Y-4.0526
X5.4357Y-4.2151
X5.4693Y-4.1339
T4
X6.6823Y-4.3201
X6.6823Y-4.4201
X6.7323Y-4.3701
T5
X5.8268Y-3.5598
X5.8268Y-3.7598
X5.8268Y-4.3441
X5.8268Y-4.7441
X5.8343Y-3.9248
X5.8343Y-4.2248
X5.9343Y-3.9248
X5.9343Y-4.2248
X5.9843Y-3.5598
X5.9843Y-3.7598
X5.9843Y-4.3441
X5.9843Y-4.7441
X6.0343Y-3.9248
X6.0343Y-4.2248
X6.1343Y-3.9248
X6.1343Y-4.2248
X6.1417Y-3.5598
X6.1417Y-3.7598
X6.1417Y-4.3441
X6.1417Y-4.7441
X6.2992Y-3.5598
X6.2992Y-3.7598
X6.2992Y-3.937
X6.2992Y-4.0701
X6.2992Y-4.3701
X6.2992Y-4.5079
X6.2992Y-4.7047
X6.437Y-4.0701
X6.437Y-4.3701
X6.437Y-4.5079
X6.437Y-4.7047
X6.4567Y-3.5598
X6.4567Y-3.7598
X6.4961Y-3.937
T6
X6.6929Y-3.8339
X6.6929Y-3.9339
X6.6929Y-4.0339
X6.6929Y-4.1339
T7
X5.1181Y-3.5433
X5.1181Y-4.7244
X6.6929Y-3.5433
X6.6929Y-4.7244
T0
M30
