%TF.GenerationSoftware,KiCad,Pcbnew,(5.1.10)-1*%
%TF.CreationDate,2021-12-11T17:16:27+05:30*%
%TF.ProjectId,LTZ1000 Board,4c545a31-3030-4302-9042-6f6172642e6b,rev?*%
%TF.SameCoordinates,Original*%
%TF.FileFunction,Soldermask,Bot*%
%TF.FilePolarity,Negative*%
%FSLAX46Y46*%
G04 Gerber Fmt 4.6, Leading zero omitted, Abs format (unit mm)*
G04 Created by KiCad (PCBNEW (5.1.10)-1) date 2021-12-11 17:16:27*
%MOMM*%
%LPD*%
G01*
G04 APERTURE LIST*
%ADD10C,8.000000*%
%ADD11O,1.600000X1.600000*%
%ADD12R,1.600000X1.600000*%
%ADD13O,1.700000X1.700000*%
%ADD14R,1.700000X1.700000*%
%ADD15C,0.800000*%
%ADD16C,6.000000*%
%ADD17O,1.200000X1.200000*%
%ADD18O,1.600000X1.200000*%
%ADD19R,1.300000X1.300000*%
%ADD20C,1.300000*%
%ADD21C,1.600000*%
G04 APERTURE END LIST*
D10*
X139000000Y-105000000D02*
G75*
G03*
X139000000Y-105000000I-3000000J0D01*
G01*
D11*
%TO.C,U1*%
X148190000Y-99690000D03*
X155810000Y-107310000D03*
X150730000Y-99690000D03*
X153270000Y-107310000D03*
X153270000Y-99690000D03*
X150730000Y-107310000D03*
X155810000Y-99690000D03*
D12*
X148190000Y-107310000D03*
%TD*%
D11*
%TO.C,D2*%
X163500000Y-111000000D03*
D12*
X163500000Y-103380000D03*
%TD*%
D11*
%TO.C,D1*%
X160000000Y-111000000D03*
D12*
X160000000Y-103380000D03*
%TD*%
D13*
%TO.C,J1*%
X170000000Y-105000000D03*
X170000000Y-102460000D03*
X170000000Y-99920000D03*
D14*
X170000000Y-97380000D03*
%TD*%
D15*
%TO.C,H2*%
X131590990Y-118409010D03*
X130000000Y-117750000D03*
X128409010Y-118409010D03*
X127750000Y-120000000D03*
X128409010Y-121590990D03*
X130000000Y-122250000D03*
X131590990Y-121590990D03*
X132250000Y-120000000D03*
D16*
X130000000Y-120000000D03*
%TD*%
D17*
%TO.C,U2*%
X138065752Y-107064752D03*
X136001000Y-107920000D03*
X133936248Y-107064752D03*
X133081000Y-105000000D03*
X133936248Y-102935248D03*
X136001000Y-102080000D03*
X138065752Y-102935248D03*
D18*
X138921000Y-105000000D03*
%TD*%
D15*
%TO.C,H4*%
X171590990Y-118409010D03*
X170000000Y-117750000D03*
X168409010Y-118409010D03*
X167750000Y-120000000D03*
X168409010Y-121590990D03*
X170000000Y-122250000D03*
X171590990Y-121590990D03*
X172250000Y-120000000D03*
D16*
X170000000Y-120000000D03*
%TD*%
D15*
%TO.C,H3*%
X171590990Y-88409010D03*
X170000000Y-87750000D03*
X168409010Y-88409010D03*
X167750000Y-90000000D03*
X168409010Y-91590990D03*
X170000000Y-92250000D03*
X171590990Y-91590990D03*
X172250000Y-90000000D03*
D16*
X170000000Y-90000000D03*
%TD*%
D15*
%TO.C,H1*%
X131590990Y-88409010D03*
X130000000Y-87750000D03*
X128409010Y-88409010D03*
X127750000Y-90000000D03*
X128409010Y-91590990D03*
X130000000Y-92250000D03*
X131590990Y-91590990D03*
X132250000Y-90000000D03*
D16*
X130000000Y-90000000D03*
%TD*%
D19*
%TO.C,Q1*%
X169730000Y-109730000D03*
D20*
X169730000Y-112270000D03*
X171000000Y-111000000D03*
%TD*%
D21*
%TO.C,R9*%
X152000000Y-90420000D03*
X152000000Y-95500000D03*
%TD*%
%TO.C,R8*%
X148000000Y-95500000D03*
X148000000Y-90420000D03*
%TD*%
%TO.C,R7*%
X160000000Y-90420000D03*
X160000000Y-95500000D03*
%TD*%
%TO.C,R6*%
X156000000Y-95500000D03*
X156000000Y-90420000D03*
%TD*%
D11*
%TO.C,R4*%
X152000000Y-110340000D03*
D21*
X152000000Y-120500000D03*
%TD*%
%TO.C,R3*%
X164000000Y-95500000D03*
X164000000Y-90420000D03*
%TD*%
D11*
%TO.C,R2*%
X148000000Y-120500000D03*
D21*
X148000000Y-110340000D03*
%TD*%
D11*
%TO.C,R1*%
X156000000Y-110340000D03*
D21*
X156000000Y-120500000D03*
%TD*%
%TO.C,C3*%
X160000000Y-100000000D03*
X165000000Y-100000000D03*
%TD*%
%TO.C,C2*%
X163500000Y-119500000D03*
X163500000Y-114500000D03*
%TD*%
%TO.C,C1*%
X160000000Y-119500000D03*
X160000000Y-114500000D03*
%TD*%
M02*
