%TF.GenerationSoftware,KiCad,Pcbnew,(5.1.10)-1*%
%TF.CreationDate,2021-12-11T17:16:27+05:30*%
%TF.ProjectId,LTZ1000 Board,4c545a31-3030-4302-9042-6f6172642e6b,rev?*%
%TF.SameCoordinates,Original*%
%TF.FileFunction,Copper,L1,Top*%
%TF.FilePolarity,Positive*%
%FSLAX46Y46*%
G04 Gerber Fmt 4.6, Leading zero omitted, Abs format (unit mm)*
G04 Created by KiCad (PCBNEW (5.1.10)-1) date 2021-12-11 17:16:27*
%MOMM*%
%LPD*%
G01*
G04 APERTURE LIST*
%TA.AperFunction,NonConductor*%
%ADD10C,2.000000*%
%TD*%
%TA.AperFunction,ComponentPad*%
%ADD11O,1.600000X1.600000*%
%TD*%
%TA.AperFunction,ComponentPad*%
%ADD12R,1.600000X1.600000*%
%TD*%
%TA.AperFunction,ComponentPad*%
%ADD13O,1.700000X1.700000*%
%TD*%
%TA.AperFunction,ComponentPad*%
%ADD14R,1.700000X1.700000*%
%TD*%
%TA.AperFunction,ComponentPad*%
%ADD15C,0.800000*%
%TD*%
%TA.AperFunction,ComponentPad*%
%ADD16C,6.000000*%
%TD*%
%TA.AperFunction,ComponentPad*%
%ADD17O,1.200000X1.200000*%
%TD*%
%TA.AperFunction,ComponentPad*%
%ADD18O,1.600000X1.200000*%
%TD*%
%TA.AperFunction,ComponentPad*%
%ADD19R,1.300000X1.300000*%
%TD*%
%TA.AperFunction,ComponentPad*%
%ADD20C,1.300000*%
%TD*%
%TA.AperFunction,ComponentPad*%
%ADD21C,1.600000*%
%TD*%
%TA.AperFunction,ViaPad*%
%ADD22C,0.609600*%
%TD*%
%TA.AperFunction,Conductor*%
%ADD23C,0.254000*%
%TD*%
%TA.AperFunction,Conductor*%
%ADD24C,0.508000*%
%TD*%
G04 APERTURE END LIST*
D10*
X142000000Y-105000000D02*
G75*
G03*
X142000000Y-105000000I-6000000J0D01*
G01*
D11*
%TO.P,U1,8*%
%TO.N,VCC*%
X148190000Y-99690000D03*
%TO.P,U1,4*%
%TO.N,GND*%
X155810000Y-107310000D03*
%TO.P,U1,7*%
%TO.N,Net-(C3-Pad1)*%
X150730000Y-99690000D03*
%TO.P,U1,3*%
%TO.N,Net-(R3-Pad2)*%
X153270000Y-107310000D03*
%TO.P,U1,6*%
%TO.N,Net-(C3-Pad2)*%
X153270000Y-99690000D03*
%TO.P,U1,2*%
%TO.N,Net-(C2-Pad1)*%
X150730000Y-107310000D03*
%TO.P,U1,5*%
%TO.N,Net-(R9-Pad2)*%
X155810000Y-99690000D03*
D12*
%TO.P,U1,1*%
%TO.N,Net-(C1-Pad1)*%
X148190000Y-107310000D03*
%TD*%
D11*
%TO.P,D2,2*%
%TO.N,Net-(C3-Pad1)*%
X163500000Y-111000000D03*
D12*
%TO.P,D2,1*%
%TO.N,/Z+*%
X163500000Y-103380000D03*
%TD*%
D11*
%TO.P,D1,2*%
%TO.N,Net-(D1-Pad2)*%
X160000000Y-111000000D03*
D12*
%TO.P,D1,1*%
%TO.N,GND*%
X160000000Y-103380000D03*
%TD*%
D13*
%TO.P,J1,4*%
%TO.N,VCC*%
X170000000Y-105000000D03*
%TO.P,J1,3*%
%TO.N,/Z+*%
X170000000Y-102460000D03*
%TO.P,J1,2*%
%TO.N,GND*%
X170000000Y-99920000D03*
D14*
%TO.P,J1,1*%
X170000000Y-97380000D03*
%TD*%
D15*
%TO.P,H2,1*%
%TO.N,N/C*%
X131590990Y-118409010D03*
X130000000Y-117750000D03*
X128409010Y-118409010D03*
X127750000Y-120000000D03*
X128409010Y-121590990D03*
X130000000Y-122250000D03*
X131590990Y-121590990D03*
X132250000Y-120000000D03*
D16*
X130000000Y-120000000D03*
%TD*%
D17*
%TO.P,U2,8*%
%TO.N,Net-(R3-Pad2)*%
X138065752Y-107064752D03*
%TO.P,U2,7*%
%TO.N,GND*%
X136001000Y-107920000D03*
%TO.P,U2,6*%
%TO.N,Net-(R4-Pad1)*%
X133936248Y-107064752D03*
%TO.P,U2,5*%
%TO.N,Net-(R9-Pad2)*%
X133081000Y-105000000D03*
%TO.P,U2,4*%
%TO.N,Net-(C3-Pad2)*%
X133936248Y-102935248D03*
%TO.P,U2,3*%
%TO.N,/Z+*%
X136001000Y-102080000D03*
%TO.P,U2,2*%
%TO.N,Net-(D1-Pad2)*%
X138065752Y-102935248D03*
D18*
%TO.P,U2,1*%
%TO.N,Net-(Q1-Pad1)*%
X138921000Y-105000000D03*
%TD*%
D15*
%TO.P,H4,1*%
%TO.N,N/C*%
X171590990Y-118409010D03*
X170000000Y-117750000D03*
X168409010Y-118409010D03*
X167750000Y-120000000D03*
X168409010Y-121590990D03*
X170000000Y-122250000D03*
X171590990Y-121590990D03*
X172250000Y-120000000D03*
D16*
X170000000Y-120000000D03*
%TD*%
D15*
%TO.P,H3,1*%
%TO.N,N/C*%
X171590990Y-88409010D03*
X170000000Y-87750000D03*
X168409010Y-88409010D03*
X167750000Y-90000000D03*
X168409010Y-91590990D03*
X170000000Y-92250000D03*
X171590990Y-91590990D03*
X172250000Y-90000000D03*
D16*
X170000000Y-90000000D03*
%TD*%
D15*
%TO.P,H1,1*%
%TO.N,N/C*%
X131590990Y-88409010D03*
X130000000Y-87750000D03*
X128409010Y-88409010D03*
X127750000Y-90000000D03*
X128409010Y-91590990D03*
X130000000Y-92250000D03*
X131590990Y-91590990D03*
X132250000Y-90000000D03*
D16*
X130000000Y-90000000D03*
%TD*%
D19*
%TO.P,Q1,1*%
%TO.N,Net-(Q1-Pad1)*%
X169730000Y-109730000D03*
D20*
%TO.P,Q1,3*%
%TO.N,VCC*%
X169730000Y-112270000D03*
%TO.P,Q1,2*%
%TO.N,Net-(Q1-Pad2)*%
X171000000Y-111000000D03*
%TD*%
D21*
%TO.P,R9,2*%
%TO.N,Net-(R9-Pad2)*%
X152000000Y-90420000D03*
%TO.P,R9,1*%
%TO.N,/Z+*%
X152000000Y-95500000D03*
%TD*%
%TO.P,R8,2*%
%TO.N,GND*%
X148000000Y-95500000D03*
%TO.P,R8,1*%
%TO.N,Net-(C3-Pad2)*%
X148000000Y-90420000D03*
%TD*%
%TO.P,R7,2*%
%TO.N,GND*%
X160000000Y-90420000D03*
%TO.P,R7,1*%
%TO.N,Net-(R4-Pad1)*%
X160000000Y-95500000D03*
%TD*%
%TO.P,R6,2*%
%TO.N,Net-(R4-Pad1)*%
X156000000Y-95500000D03*
%TO.P,R6,1*%
%TO.N,/Z+*%
X156000000Y-90420000D03*
%TD*%
D11*
%TO.P,R4,2*%
%TO.N,Net-(C2-Pad1)*%
X152000000Y-110340000D03*
D21*
%TO.P,R4,1*%
%TO.N,Net-(R4-Pad1)*%
X152000000Y-120500000D03*
%TD*%
%TO.P,R3,2*%
%TO.N,Net-(R3-Pad2)*%
X164000000Y-95500000D03*
%TO.P,R3,1*%
%TO.N,/Z+*%
X164000000Y-90420000D03*
%TD*%
D11*
%TO.P,R2,2*%
%TO.N,Net-(Q1-Pad2)*%
X148000000Y-120500000D03*
D21*
%TO.P,R2,1*%
%TO.N,Net-(C1-Pad1)*%
X148000000Y-110340000D03*
%TD*%
D11*
%TO.P,R1,2*%
%TO.N,Net-(Q1-Pad1)*%
X156000000Y-110340000D03*
D21*
%TO.P,R1,1*%
%TO.N,Net-(C1-Pad2)*%
X156000000Y-120500000D03*
%TD*%
%TO.P,C3,2*%
%TO.N,Net-(C3-Pad2)*%
X160000000Y-100000000D03*
%TO.P,C3,1*%
%TO.N,Net-(C3-Pad1)*%
X165000000Y-100000000D03*
%TD*%
%TO.P,C2,2*%
%TO.N,Net-(C1-Pad1)*%
X163500000Y-119500000D03*
%TO.P,C2,1*%
%TO.N,Net-(C2-Pad1)*%
X163500000Y-114500000D03*
%TD*%
%TO.P,C1,2*%
%TO.N,Net-(C1-Pad2)*%
X160000000Y-119500000D03*
%TO.P,C1,1*%
%TO.N,Net-(C1-Pad1)*%
X160000000Y-114500000D03*
%TD*%
D22*
%TO.N,Net-(C3-Pad2)*%
X130501010Y-99500000D03*
%TO.N,GND*%
X136001000Y-112499000D03*
X166999992Y-106500008D03*
%TO.N,Net-(D1-Pad2)*%
X141500000Y-99501000D03*
%TO.N,Net-(Q1-Pad1)*%
X143499994Y-105000000D03*
%TO.N,Net-(R3-Pad2)*%
X141500000Y-110500000D03*
X144000000Y-117000000D03*
X158000000Y-109000000D03*
%TO.N,Net-(R4-Pad1)*%
X130500000Y-110500000D03*
%TO.N,Net-(R9-Pad2)*%
X128500000Y-105000000D03*
%TO.N,/Z+*%
X136001000Y-97501000D03*
%TD*%
D23*
%TO.N,Net-(C1-Pad1)*%
X148190000Y-107310000D02*
X148190000Y-108810000D01*
X148000000Y-109000000D02*
X148000000Y-110340000D01*
X148190000Y-108810000D02*
X148000000Y-109000000D01*
X148000000Y-110340000D02*
X148000000Y-113000000D01*
X149500000Y-114500000D02*
X160000000Y-114500000D01*
X148000000Y-113000000D02*
X149500000Y-114500000D01*
%TO.N,Net-(C2-Pad1)*%
X150730000Y-109070000D02*
X152000000Y-110340000D01*
X150730000Y-107310000D02*
X150730000Y-109070000D01*
X162000000Y-114500000D02*
X163500000Y-114500000D01*
X160500000Y-113000000D02*
X162000000Y-114500000D01*
X153000000Y-113000000D02*
X160500000Y-113000000D01*
X152000000Y-112000000D02*
X153000000Y-113000000D01*
X152000000Y-110340000D02*
X152000000Y-112000000D01*
%TO.N,Net-(C3-Pad2)*%
X133500000Y-95500000D02*
X130501010Y-98498990D01*
X133500000Y-93500000D02*
X133500000Y-95500000D01*
X134500000Y-92500000D02*
X133500000Y-93500000D01*
X145920000Y-92500000D02*
X134500000Y-92500000D01*
X130501010Y-98498990D02*
X130501010Y-99500000D01*
X148000000Y-90420000D02*
X145920000Y-92500000D01*
X153270000Y-99690000D02*
X153270000Y-100270000D01*
X153270000Y-100270000D02*
X154000000Y-101000000D01*
X159000000Y-101000000D02*
X160000000Y-100000000D01*
X154000000Y-101000000D02*
X159000000Y-101000000D01*
%TO.N,Net-(C3-Pad1)*%
X150730000Y-99690000D02*
X150730000Y-100730000D01*
X150730000Y-100730000D02*
X151500000Y-101500000D01*
X151500000Y-101500000D02*
X164500000Y-101500000D01*
X165000000Y-101000000D02*
X165000000Y-100000000D01*
X164500000Y-101500000D02*
X165000000Y-101000000D01*
X165000000Y-110500000D02*
X165000000Y-102000000D01*
X164500000Y-111000000D02*
X165000000Y-110500000D01*
X165000000Y-102000000D02*
X164500000Y-101500000D01*
X163500000Y-111000000D02*
X164500000Y-111000000D01*
D24*
%TO.N,GND*%
X167500000Y-106000000D02*
X166999992Y-106500008D01*
X167500000Y-98000000D02*
X167500000Y-106000000D01*
X168120000Y-97380000D02*
X167500000Y-98000000D01*
X170000000Y-97380000D02*
X168120000Y-97380000D01*
D23*
X171880000Y-97380000D02*
X170000000Y-97380000D01*
X174000000Y-99500000D02*
X171880000Y-97380000D01*
X174000000Y-115000000D02*
X174000000Y-99500000D01*
X168000000Y-116000000D02*
X173000000Y-116000000D01*
X173000000Y-116000000D02*
X174000000Y-115000000D01*
X166000000Y-118000000D02*
X168000000Y-116000000D01*
X136000000Y-118000000D02*
X166000000Y-118000000D01*
X134000000Y-116000000D02*
X136000000Y-118000000D01*
X134000000Y-114000000D02*
X134000000Y-116000000D01*
X135501000Y-112499000D02*
X134000000Y-114000000D01*
X136001000Y-112499000D02*
X135501000Y-112499000D01*
D24*
%TO.N,Net-(D1-Pad2)*%
X162000000Y-113000000D02*
X160000000Y-111000000D01*
X165500000Y-113500000D02*
X165000000Y-113000000D01*
X165500000Y-115000000D02*
X165500000Y-113500000D01*
X146500000Y-116000000D02*
X164500000Y-116000000D01*
X145500000Y-115000000D02*
X146500000Y-116000000D01*
X164500000Y-116000000D02*
X165500000Y-115000000D01*
X145500000Y-102000000D02*
X145500000Y-115000000D01*
X165000000Y-113000000D02*
X162000000Y-113000000D01*
X143001000Y-99501000D02*
X145500000Y-102000000D01*
X141500000Y-99501000D02*
X143001000Y-99501000D01*
%TO.N,Net-(Q1-Pad1)*%
X144500000Y-115500000D02*
X144500000Y-105500000D01*
X146000000Y-117000000D02*
X144500000Y-115500000D01*
X165000000Y-117000000D02*
X146000000Y-117000000D01*
X166500000Y-115500000D02*
X165000000Y-117000000D01*
X144000000Y-105000000D02*
X143499994Y-105000000D01*
X144500000Y-105500000D02*
X144000000Y-105000000D01*
X167270000Y-109730000D02*
X166500000Y-110500000D01*
X166500000Y-110500000D02*
X166500000Y-115500000D01*
X169730000Y-109730000D02*
X167270000Y-109730000D01*
D23*
%TO.N,Net-(R3-Pad2)*%
X141500000Y-110500000D02*
X142500000Y-110500000D01*
X142500000Y-110500000D02*
X143500000Y-111500000D01*
X143500000Y-116500000D02*
X144000000Y-117000000D01*
X143500000Y-111500000D02*
X143500000Y-116500000D01*
X158000000Y-109000000D02*
X158000000Y-109000000D01*
X160500000Y-109000000D02*
X158000000Y-109000000D01*
X165500000Y-111500000D02*
X164872999Y-112127001D01*
X161500000Y-110000000D02*
X160500000Y-109000000D01*
X165500000Y-102000000D02*
X165500000Y-111500000D01*
X164872999Y-112127001D02*
X162127001Y-112127001D01*
X166500000Y-101000000D02*
X165500000Y-102000000D01*
X161500000Y-111500000D02*
X161500000Y-110000000D01*
X166500000Y-96500000D02*
X166500000Y-101000000D01*
X165500000Y-95500000D02*
X166500000Y-96500000D01*
X162127001Y-112127001D02*
X161500000Y-111500000D01*
X164000000Y-95500000D02*
X165500000Y-95500000D01*
%TO.N,Net-(R4-Pad1)*%
X156000000Y-95500000D02*
X160000000Y-95500000D01*
X129500000Y-110500000D02*
X130500000Y-110500000D01*
X160000000Y-95500000D02*
X162500000Y-93000000D01*
X162500000Y-93000000D02*
X164500000Y-93000000D01*
X164500000Y-93000000D02*
X166000000Y-91500000D01*
X166000000Y-91500000D02*
X166000000Y-89500000D01*
X166000000Y-89500000D02*
X164500000Y-88000000D01*
X127500000Y-108500000D02*
X129500000Y-110500000D01*
X164500000Y-88000000D02*
X144500000Y-88000000D01*
X132500000Y-92857934D02*
X132500000Y-94428967D01*
X144500000Y-88000000D02*
X141000000Y-91500000D01*
X141000000Y-91500000D02*
X133857934Y-91500000D01*
X133857934Y-91500000D02*
X132500000Y-92857934D01*
X132500000Y-94428967D02*
X127500000Y-99428967D01*
X127500000Y-99428967D02*
X127500000Y-108500000D01*
X150000000Y-118500000D02*
X152000000Y-120500000D01*
X135500000Y-118500000D02*
X150000000Y-118500000D01*
X133500000Y-116500000D02*
X135500000Y-118500000D01*
X133500000Y-114500000D02*
X133500000Y-116500000D01*
X130500000Y-111500000D02*
X133500000Y-114500000D01*
X130500000Y-110500000D02*
X130500000Y-111500000D01*
%TO.N,Net-(R9-Pad2)*%
X128000000Y-100000000D02*
X128000000Y-104500000D01*
X133000000Y-95000000D02*
X128000000Y-100000000D01*
X133000000Y-93000000D02*
X133000000Y-95000000D01*
X134000000Y-92000000D02*
X133000000Y-93000000D01*
X145000000Y-88500000D02*
X141500000Y-92000000D01*
X141500000Y-92000000D02*
X134000000Y-92000000D01*
X150080000Y-88500000D02*
X145000000Y-88500000D01*
X128000000Y-104500000D02*
X128500000Y-105000000D01*
X152000000Y-90420000D02*
X150080000Y-88500000D01*
D24*
%TO.N,VCC*%
X172500000Y-105000000D02*
X170000000Y-105000000D01*
X173250000Y-105750000D02*
X172500000Y-105000000D01*
X173250000Y-111500000D02*
X173250000Y-105750000D01*
X172480000Y-112270000D02*
X173250000Y-111500000D01*
X169730000Y-112270000D02*
X172480000Y-112270000D01*
D23*
%TO.N,/Z+*%
X151500000Y-95500000D02*
X149000000Y-93000000D01*
X152000000Y-95500000D02*
X151500000Y-95500000D01*
X161420000Y-93000000D02*
X164000000Y-90420000D01*
X154500000Y-93000000D02*
X161420000Y-93000000D01*
X154000000Y-93000000D02*
X154500000Y-93000000D01*
X149000000Y-93000000D02*
X154000000Y-93000000D01*
X153500000Y-93000000D02*
X154500000Y-93000000D01*
X153500000Y-92920000D02*
X153500000Y-93000000D01*
X156000000Y-90420000D02*
X153500000Y-92920000D01*
X136001000Y-97501000D02*
X135500000Y-97000000D01*
X135000000Y-93000000D02*
X149000000Y-93000000D01*
X134000000Y-94000000D02*
X135000000Y-93000000D01*
X134000000Y-96500000D02*
X134000000Y-94000000D01*
X134000000Y-96500000D02*
X134500000Y-97000000D01*
X134500000Y-97000000D02*
X135500000Y-97000000D01*
X163500000Y-103380000D02*
X163500000Y-105000000D01*
X163500000Y-105000000D02*
X163000000Y-105500000D01*
X163000000Y-105500000D02*
X147500000Y-105500000D01*
X147500000Y-105500000D02*
X146500000Y-104500000D01*
X146500000Y-104500000D02*
X146500000Y-98500000D01*
X146500000Y-98500000D02*
X147500000Y-97500000D01*
X147500000Y-97500000D02*
X151500000Y-97500000D01*
X152000000Y-97000000D02*
X152000000Y-95500000D01*
X151500000Y-97500000D02*
X152000000Y-97000000D01*
%TD*%
M02*
